<?xml version="1.0" encoding="utf-8"?>
<!-- Generator: Adobe Illustrator 19.0.0, SVG Export Plug-In . SVG Version: 6.00 Build 0)  -->
<svg version="1.1" id="Layer_1" xmlns="http://www.w3.org/2000/svg" xmlns:xlink="http://www.w3.org/1999/xlink" x="0px" y="0px"
	 width="520px" height="350px" viewBox="-160 420.5 520 350" style="enable-background:new -160 420.5 520 350;"
	 xml:space="preserve">
<style type="text/css">
	.st0{fill:#24ABE2;}
	.st1{enable-background:new    ;}
	.st2{fill:#04304B;}
	.st3{fill:#F05123;}
</style>
<g>
	<path class="st0" d="M-41,551.9c-44.9-10.8-88.5,12.1-104,55.6c-16.3,45.7,6.2,95.8,52.3,113.6c5,1.8,7,1.9,5.3,3
		c-8.7,3.7-39.5-15.9-52.4-33.2c-24.3-32.4-25-77.5-0.3-110.8c15.2-20.6,35.7-33,61-36.8c25.2-3.8,48.3,2.1,69.3,16.9
		C-27,522.7-24.6,487.3,1.7,455.1c17-20.8,39.8-31.6,66.4-32.7c30.1-1.3,55.5,9.7,75.3,32.6c19.8,22.9,25.2,49.8,20.2,79.9
		c21.7-17.1,45.3-21.9,70.4-11.4c25.2,10.5,38,30.3,41,57.7c15.5-12,32.7-14.8,50.9-8.6c12.1,4.1,21.1,12.3,27.5,23.3
		c6.1,10.6,8.1,29.6,4.6,38.4c-0.3,0.7-1.6,3.7-2.3,3.5c-0.6-0.2,0.1-3.4,0.3-4.3c3.5-19.9-2.3-36.6-18-49.4
		c-16.9-13.8-41.6-14.1-59.3-1.5c-0.5,0.4-2.8,2.2-3.5,2.6c-0.9,0.6-1.9,1.1-2.6,0.8s-0.9-0.9-1.2-1.7c-0.3-1-0.8-5.3-1-6.3
		c-3.5-19.7-13.6-35.1-31-45.7c-8.5-5.1-17.8-7.9-27.7-8.7c-16.5-1.3-31.2,3.4-44.5,12.9c-1.4,1-2.6,2.4-4.1,3.3
		c-0.8,0.5-1.8,1.2-2.9,0.5c-1-0.6-0.9-2.1-0.8-3.2c0.5-5.8,1.6-11.5,1.5-17.3c-0.3-28.1-10.7-51.8-31.7-70.5
		c-10.9-9.7-24-15-38.2-17.7c-22.3-4.2-43.5-0.6-62.8,11.3c-23.9,14.7-36.5,36.3-40.5,64.3c-4.3,24.6,14.5,58,11.2,61.2
		C-5.8,571.3-14.7,559-41,551.9"/>
	<path class="st0" d="M185.3,617.9v25.7h39.2v-25.7c0-3.7,0.8-6.4,2.5-8.3c1.7-1.8,3.8-2.8,6.5-2.8s4.9,0.9,6.6,2.7s2.5,4.6,2.5,8.3
		v70.8c0,3.7-0.9,6.5-2.6,8.3s-3.9,2.8-6.6,2.8s-4.9-0.9-6.6-2.8c-1.6-1.9-2.4-4.6-2.4-8.3v-30.2h-39.2v30.2c0,3.7-0.9,6.5-2.6,8.3
		s-3.9,2.8-6.6,2.8s-4.9-0.9-6.5-2.8c-1.6-1.9-2.4-4.6-2.4-8.3v-70.8c0-3.7,0.8-6.4,2.4-8.3c1.6-1.8,3.8-2.8,6.6-2.8
		c2.7,0,5,0.9,6.6,2.7C184.4,611.4,185.3,614.1,185.3,617.9"/>
	<path class="st0" d="M279.1,659.8h-6.4v28.9c0,3.8-0.8,6.6-2.5,8.4s-3.9,2.7-6.5,2.7c-2.9,0-5.1-0.9-6.7-2.8
		c-1.6-1.9-2.4-4.6-2.4-8.3v-69.2c0-3.9,0.9-6.8,2.6-8.5c1.8-1.8,4.6-2.6,8.5-2.6h29.6c4.1,0,7.6,0.2,10.5,0.5
		c2.9,0.3,5.5,1,7.8,2.1c2.8,1.2,5.3,2.9,7.5,5.1c2.2,2.2,3.8,4.8,4.9,7.7c1.1,2.9,1.7,6,1.7,9.3c0,6.7-1.9,12.1-5.7,16.1
		c-3.8,4-9.5,6.9-17.2,8.5c3.2,1.7,6.3,4.3,9.2,7.6c2.9,3.3,5.6,6.9,7.9,10.7c2.3,3.8,4.1,7.2,5.4,10.2s1.9,5.1,1.9,6.3
		c0,1.2-0.4,2.4-1.1,3.5c-0.8,1.2-1.8,2.1-3.1,2.8c-1.3,0.7-2.8,1-4.5,1c-2,0-3.8-0.5-5.1-1.4c-1.4-1-2.6-2.2-3.6-3.6
		c-1-1.5-2.4-3.6-4.1-6.5l-7.3-12.1c-2.6-4.5-5-7.9-7-10.2c-2.1-2.3-4.2-3.9-6.3-4.8C285,660.2,282.3,659.8,279.1,659.8 M289.5,622
		h-16.8v24.7H289c4.4,0,8-0.4,11-1.1c3-0.8,5.3-2,6.8-3.9c1.6-1.8,2.4-4.3,2.4-7.5c0-2.5-0.6-4.7-1.9-6.6c-1.3-1.9-3-3.3-5.3-4.3
		C299.9,622.5,295.7,622,289.5,622"/>
	<g class="st1">
		<path class="st2" d="M-81.7,765.8v-7.5l-5.8-9c-0.5-0.8-0.9-1.4-1.1-1.9c-0.2-0.5-0.3-0.8-0.3-1.2c0-0.5,0.2-1,0.6-1.4
			c0.4-0.4,1-0.6,1.6-0.6c0.7,0,1.2,0.2,1.5,0.6s0.8,1.1,1.5,2.2l4.4,7.2l4.5-7.2c0.3-0.4,0.5-0.8,0.7-1.1c0.2-0.3,0.4-0.6,0.6-0.8
			c0.2-0.3,0.5-0.5,0.7-0.6c0.3-0.1,0.6-0.2,1-0.2c0.6,0,1.1,0.2,1.5,0.6c0.4,0.4,0.6,0.8,0.6,1.4c0,0.4-0.1,0.8-0.3,1.3
			c-0.2,0.4-0.6,1-1.1,1.7l-5.9,9.1v7.5c0,1-0.2,1.7-0.7,2.2c-0.5,0.5-1,0.7-1.7,0.7c-0.7,0-1.3-0.2-1.7-0.7
			C-81.5,767.5-81.7,766.7-81.7,765.8z"/>
	</g>
	<g class="st1">
		<path class="st2" d="M-53.1,759.7c0,1.3-0.2,2.5-0.6,3.6c-0.4,1.1-1,2.1-1.8,2.9c-0.8,0.8-1.7,1.4-2.8,1.8s-2.3,0.6-3.6,0.6
			c-1.3,0-2.5-0.2-3.6-0.6c-1.1-0.4-2-1-2.8-1.9c-0.8-0.8-1.4-1.8-1.8-2.8c-0.4-1.1-0.6-2.3-0.6-3.6c0-1.3,0.2-2.6,0.6-3.7
			c0.4-1.1,1-2.1,1.8-2.8c0.8-0.8,1.7-1.4,2.8-1.8c1.1-0.4,2.3-0.6,3.6-0.6c1.3,0,2.6,0.2,3.6,0.6s2,1,2.8,1.8
			c0.8,0.8,1.4,1.7,1.8,2.8C-53.3,757.2-53.1,758.4-53.1,759.7z M-57.5,759.7c0-1.8-0.4-3.2-1.2-4.2c-0.8-1-1.9-1.5-3.2-1.5
			c-0.9,0-1.6,0.2-2.3,0.7c-0.7,0.4-1.2,1.1-1.5,2c-0.4,0.9-0.5,1.9-0.5,3.1c0,1.2,0.2,2.2,0.5,3c0.4,0.9,0.9,1.5,1.5,2
			c0.7,0.5,1.4,0.7,2.3,0.7c1.3,0,2.4-0.5,3.2-1.5C-57.9,762.9-57.5,761.5-57.5,759.7z"/>
	</g>
	<g class="st1">
		<path class="st2" d="M-38.4,766.2v-0.6c-0.5,0.7-1.1,1.2-1.7,1.7c-0.6,0.5-1.2,0.8-1.9,1c-0.7,0.2-1.5,0.3-2.4,0.3
			c-1.1,0-2-0.2-2.9-0.7s-1.5-1.1-2-1.8c-0.6-0.9-0.8-2.3-0.8-4v-8.8c0-0.9,0.2-1.5,0.6-2s0.9-0.7,1.6-0.7c0.7,0,1.2,0.2,1.6,0.7
			c0.4,0.4,0.6,1.1,0.6,2v7.1c0,1,0.1,1.9,0.3,2.6c0.2,0.7,0.5,1.2,0.9,1.6c0.4,0.4,1.1,0.6,1.8,0.6c0.7,0,1.4-0.2,2.1-0.7
			c0.7-0.4,1.1-1,1.4-1.7c0.2-0.6,0.4-2,0.4-4.1v-5.4c0-0.9,0.2-1.5,0.6-2c0.4-0.4,0.9-0.7,1.6-0.7c0.7,0,1.2,0.2,1.6,0.7
			c0.4,0.4,0.6,1.1,0.6,2v12.8c0,0.8-0.2,1.5-0.6,1.9s-0.9,0.6-1.5,0.6s-1.1-0.2-1.5-0.7S-38.4,767-38.4,766.2z"/>
	</g>
	<g class="st1">
		<path class="st2" d="M-25.8,762.3v3.7c0,0.9-0.2,1.6-0.6,2c-0.4,0.4-1,0.7-1.6,0.7c-0.6,0-1.2-0.2-1.6-0.7c-0.4-0.5-0.6-1.1-0.6-2
			v-12.3c0-2,0.7-3,2.2-3c0.7,0,1.3,0.2,1.6,0.7c0.3,0.5,0.5,1.1,0.5,2.1c0.5-0.9,1.1-1.6,1.6-2.1c0.6-0.5,1.3-0.7,2.2-0.7
			c0.9,0,1.8,0.2,2.7,0.7c0.9,0.5,1.3,1.1,1.3,1.8c0,0.5-0.2,1-0.6,1.3c-0.4,0.4-0.8,0.5-1.2,0.5c-0.2,0-0.6-0.1-1.2-0.3
			c-0.6-0.2-1.2-0.3-1.6-0.3c-0.6,0-1.2,0.2-1.6,0.5c-0.4,0.3-0.7,0.8-1,1.5c-0.2,0.7-0.4,1.5-0.5,2.4S-25.8,761-25.8,762.3z"/>
	</g>
	<g class="st1">
		<path class="st2" d="M10.9,761.2c0,1.4-0.4,2.7-1.1,3.9c-0.7,1.1-1.8,2-3.2,2.7c-1.4,0.6-3.1,1-5.1,1c-2.3,0-4.3-0.4-5.8-1.3
			c-1.1-0.6-2-1.5-2.6-2.5c-0.7-1.1-1-2.1-1-3.1c0-0.6,0.2-1.1,0.6-1.5c0.4-0.4,0.9-0.6,1.5-0.6c0.5,0,0.9,0.2,1.3,0.5
			c0.4,0.3,0.6,0.8,0.9,1.4c0.3,0.8,0.6,1.4,1,1.9s0.8,0.9,1.5,1.3c0.6,0.3,1.5,0.5,2.5,0.5c1.4,0,2.6-0.3,3.5-1s1.3-1.5,1.3-2.5
			c0-0.8-0.2-1.4-0.7-1.9c-0.5-0.5-1.1-0.9-1.9-1.1s-1.8-0.5-3-0.8c-1.7-0.4-3.1-0.9-4.3-1.4c-1.1-0.5-2.1-1.3-2.7-2.2
			c-0.7-0.9-1-2.1-1-3.4c0-1.3,0.4-2.5,1.1-3.5c0.7-1,1.7-1.8,3.1-2.3c1.3-0.5,2.9-0.8,4.8-0.8c1.5,0,2.7,0.2,3.8,0.5
			c1.1,0.4,1.9,0.8,2.6,1.4c0.7,0.6,1.2,1.2,1.5,1.9s0.5,1.3,0.5,1.9c0,0.6-0.2,1.1-0.6,1.5c-0.4,0.5-0.9,0.7-1.5,0.7
			c-0.6,0-1-0.1-1.3-0.4c-0.3-0.3-0.6-0.7-0.9-1.4c-0.4-0.9-0.9-1.6-1.6-2.1c-0.6-0.5-1.6-0.8-2.9-0.8c-1.2,0-2.2,0.3-3,0.8
			c-0.8,0.5-1.1,1.2-1.1,2c0,0.5,0.1,0.9,0.4,1.2c0.3,0.3,0.6,0.6,1.1,0.9s0.9,0.4,1.4,0.6c0.5,0.1,1.2,0.3,2.3,0.6
			c1.3,0.3,2.5,0.7,3.6,1c1.1,0.4,2,0.8,2.8,1.4s1.4,1.2,1.8,2C10.7,759,10.9,760,10.9,761.2z"/>
	</g>
	<g class="st1">
		<path class="st2" d="M26.7,760.8H18c0,1,0.2,1.9,0.6,2.7s0.9,1.3,1.6,1.7c0.7,0.4,1.4,0.6,2.2,0.6c0.5,0,1-0.1,1.4-0.2
			c0.4-0.1,0.9-0.3,1.3-0.6c0.4-0.3,0.8-0.5,1.1-0.8c0.3-0.3,0.8-0.7,1.3-1.2c0.2-0.2,0.6-0.3,1-0.3c0.5,0,0.8,0.1,1.1,0.4
			c0.3,0.2,0.4,0.6,0.4,1.1c0,0.4-0.2,0.9-0.5,1.4c-0.3,0.5-0.8,1-1.4,1.5c-0.6,0.5-1.4,0.9-2.4,1.2c-1,0.3-2.1,0.5-3.3,0.5
			c-2.8,0-5-0.8-6.6-2.4c-1.6-1.6-2.4-3.8-2.4-6.6c0-1.3,0.2-2.5,0.6-3.6s1-2.1,1.7-2.9c0.7-0.8,1.7-1.4,2.8-1.8
			c1.1-0.4,2.3-0.6,3.6-0.6c1.7,0,3.2,0.4,4.4,1.1c1.2,0.7,2.2,1.7,2.8,2.8s0.9,2.3,0.9,3.5c0,1.1-0.3,1.8-1,2.2
			C28.7,760.6,27.8,760.8,26.7,760.8z M18,758.3h8c-0.1-1.5-0.5-2.6-1.2-3.4c-0.7-0.8-1.6-1.1-2.8-1.1c-1.1,0-2,0.4-2.7,1.1
			C18.6,755.7,18.2,756.8,18,758.3z"/>
	</g>
	<g class="st1">
		<path class="st2" d="M49.5,763.2c0,0.5-0.2,1.1-0.5,1.8c-0.3,0.6-0.8,1.2-1.5,1.8c-0.7,0.6-1.5,1-2.5,1.4c-1,0.3-2.2,0.5-3.5,0.5
			c-2.7,0-4.9-0.8-6.4-2.4c-1.5-1.6-2.3-3.7-2.3-6.4c0-1.8,0.4-3.4,1.1-4.8c0.7-1.4,1.7-2.5,3-3.2c1.3-0.8,2.9-1.1,4.8-1.1
			c1.1,0,2.2,0.2,3.1,0.5c1,0.3,1.8,0.8,2.4,1.3c0.7,0.5,1.2,1.1,1.5,1.7c0.4,0.6,0.5,1.2,0.5,1.7c0,0.5-0.2,1-0.6,1.3
			c-0.4,0.4-0.9,0.5-1.4,0.5c-0.4,0-0.7-0.1-0.9-0.3c-0.2-0.2-0.5-0.5-0.8-0.9c-0.5-0.8-1.1-1.4-1.7-1.8c-0.6-0.4-1.3-0.6-2.2-0.6
			c-1.3,0-2.4,0.5-3.2,1.5c-0.8,1-1.2,2.4-1.2,4.2c0,0.8,0.1,1.6,0.3,2.3c0.2,0.7,0.5,1.3,0.9,1.8c0.4,0.5,0.9,0.9,1.4,1.1
			c0.5,0.3,1.2,0.4,1.8,0.4c0.9,0,1.6-0.2,2.3-0.6s1.2-1,1.7-1.9c0.3-0.5,0.6-0.9,0.9-1.2c0.3-0.3,0.7-0.4,1.1-0.4
			c0.5,0,1,0.2,1.3,0.6C49.3,762.3,49.5,762.8,49.5,763.2z"/>
		<path class="st2" d="M53.6,751.1h0.5v-2.7c0-0.7,0-1.3,0.1-1.7c0-0.4,0.1-0.8,0.3-1c0.2-0.3,0.4-0.5,0.7-0.7
			c0.3-0.2,0.7-0.3,1.1-0.3c0.6,0,1.1,0.2,1.5,0.6c0.3,0.3,0.5,0.6,0.6,1c0.1,0.4,0.1,1,0.1,1.7v3h1.6c0.6,0,1.1,0.1,1.4,0.4
			c0.3,0.3,0.5,0.7,0.5,1.1c0,0.6-0.2,1-0.7,1.2c-0.5,0.2-1.1,0.4-2,0.4h-0.8v8.1c0,0.7,0,1.2,0.1,1.6c0,0.4,0.2,0.7,0.4,0.9
			c0.2,0.2,0.6,0.3,1,0.3c0.3,0,0.6,0,1.1-0.1c0.4-0.1,0.8-0.1,1-0.1c0.4,0,0.7,0.1,1,0.4c0.3,0.3,0.4,0.6,0.4,1.1
			c0,0.7-0.4,1.3-1.2,1.6c-0.8,0.4-1.9,0.6-3.3,0.6c-1.4,0-2.4-0.2-3.1-0.7s-1.2-1.1-1.4-1.9s-0.3-1.9-0.3-3.3v-8.5h-0.6
			c-0.6,0-1.1-0.2-1.5-0.5c-0.3-0.3-0.5-0.7-0.5-1.1s0.2-0.8,0.5-1.1C52.4,751.3,52.9,751.1,53.6,751.1z"/>
	</g>
	<g class="st1">
		<path class="st2" d="M81.6,759.7c0,1.3-0.2,2.5-0.6,3.6c-0.4,1.1-1,2.1-1.8,2.9c-0.8,0.8-1.7,1.4-2.8,1.8s-2.3,0.6-3.6,0.6
			c-1.3,0-2.5-0.2-3.6-0.6c-1.1-0.4-2-1-2.8-1.9c-0.8-0.8-1.4-1.8-1.8-2.8c-0.4-1.1-0.6-2.3-0.6-3.6c0-1.3,0.2-2.6,0.6-3.7
			c0.4-1.1,1-2.1,1.8-2.8c0.8-0.8,1.7-1.4,2.8-1.8c1.1-0.4,2.3-0.6,3.6-0.6c1.3,0,2.6,0.2,3.6,0.6s2,1,2.8,1.8
			c0.8,0.8,1.4,1.7,1.8,2.8C81.4,757.2,81.6,758.4,81.6,759.7z M77.2,759.7c0-1.8-0.4-3.2-1.2-4.2c-0.8-1-1.9-1.5-3.2-1.5
			c-0.9,0-1.6,0.2-2.3,0.7c-0.7,0.4-1.2,1.1-1.5,2c-0.4,0.9-0.5,1.9-0.5,3.1c0,1.2,0.2,2.2,0.5,3c0.4,0.9,0.9,1.5,1.5,2
			c0.7,0.5,1.4,0.7,2.3,0.7c1.3,0,2.4-0.5,3.2-1.5C76.8,762.9,77.2,761.5,77.2,759.7z"/>
	</g>
	<g class="st1">
		<path class="st2" d="M89.1,762.3v3.7c0,0.9-0.2,1.6-0.6,2c-0.4,0.4-1,0.7-1.6,0.7c-0.6,0-1.2-0.2-1.6-0.7c-0.4-0.5-0.6-1.1-0.6-2
			v-12.3c0-2,0.7-3,2.2-3c0.7,0,1.3,0.2,1.6,0.7c0.3,0.5,0.5,1.1,0.5,2.1c0.5-0.9,1.1-1.6,1.6-2.1c0.6-0.5,1.3-0.7,2.2-0.7
			c0.9,0,1.8,0.2,2.7,0.7c0.9,0.5,1.3,1.1,1.3,1.8c0,0.5-0.2,1-0.6,1.3c-0.4,0.4-0.8,0.5-1.2,0.5c-0.2,0-0.6-0.1-1.2-0.3
			c-0.6-0.2-1.2-0.3-1.6-0.3c-0.6,0-1.2,0.2-1.6,0.5c-0.4,0.3-0.7,0.8-1,1.5c-0.2,0.7-0.4,1.5-0.5,2.4S89.1,761,89.1,762.3z"/>
	</g>
	<g class="st1">
		<path class="st2" d="M102.3,749.1H102c-0.6,0-1.2-0.2-1.6-0.7c-0.5-0.5-0.7-1.1-0.7-1.7c0-0.7,0.2-1.3,0.7-1.7
			c0.5-0.5,1.1-0.7,1.8-0.7c0.5,0,1,0.1,1.4,0.4c0.4,0.3,0.8,0.7,1,1.2c0.2,0.5,0.4,1.2,0.4,2c0,1.1-0.2,2.1-0.7,3
			c-0.5,0.9-1,1.7-1.7,2.2c-0.7,0.5-1.2,0.8-1.8,0.8c-0.3,0-0.6-0.1-0.8-0.3c-0.2-0.2-0.3-0.5-0.3-0.8c0-0.5,0.2-0.8,0.7-1.1
			c0.6-0.3,1-0.7,1.3-1.1C102,750.2,102.2,749.7,102.3,749.1z"/>
	</g>
	<g class="st1">
		<path class="st2" d="M120.2,762.9c0,1.2-0.3,2.3-0.9,3.1c-0.6,0.9-1.5,1.5-2.6,2s-2.6,0.7-4.2,0.7c-1.6,0-2.9-0.2-4.1-0.7
			s-2-1.1-2.5-1.8c-0.5-0.7-0.8-1.5-0.8-2.2c0-0.5,0.2-0.9,0.5-1.2c0.3-0.3,0.8-0.5,1.3-0.5c0.5,0,0.8,0.1,1.1,0.3s0.5,0.5,0.7,1
			c0.5,0.8,1,1.4,1.6,1.8c0.6,0.4,1.5,0.6,2.6,0.6c0.9,0,1.6-0.2,2.2-0.6s0.8-0.8,0.8-1.4c0-0.8-0.3-1.3-0.9-1.7s-1.6-0.7-2.9-1
			c-1.5-0.4-2.8-0.8-3.7-1.2s-1.7-1-2.3-1.6c-0.6-0.7-0.9-1.5-0.9-2.5c0-0.9,0.3-1.7,0.8-2.5c0.5-0.8,1.3-1.4,2.3-1.9
			c1-0.5,2.3-0.7,3.7-0.7c1.1,0,2.2,0.1,3.1,0.4s1.7,0.6,2.3,1c0.6,0.4,1.1,0.8,1.4,1.3s0.5,1,0.5,1.4c0,0.5-0.2,0.9-0.5,1.2
			c-0.3,0.3-0.8,0.5-1.4,0.5c-0.5,0-0.8-0.1-1.2-0.4s-0.7-0.6-1.1-1.2c-0.3-0.4-0.7-0.8-1.2-1s-1.1-0.4-1.8-0.4
			c-0.8,0-1.5,0.2-2,0.5s-0.8,0.8-0.8,1.3c0,0.5,0.2,0.8,0.6,1.1c0.4,0.3,0.9,0.5,1.6,0.7c0.7,0.2,1.6,0.4,2.7,0.7
			c1.4,0.3,2.5,0.7,3.4,1.2c0.9,0.5,1.5,1,2,1.6C120,761.4,120.2,762.1,120.2,762.9z"/>
	</g>
	<g class="st1">
		<path class="st2" d="M137.4,747.1v6.8h10.4v-6.8c0-1,0.2-1.7,0.7-2.2s1-0.7,1.7-0.7c0.7,0,1.3,0.2,1.8,0.7
			c0.4,0.5,0.7,1.2,0.7,2.2v18.7c0,1-0.2,1.7-0.7,2.2s-1,0.7-1.7,0.7c-0.7,0-1.3-0.2-1.7-0.7c-0.4-0.5-0.6-1.2-0.6-2.2v-8h-10.4v8
			c0,1-0.2,1.7-0.7,2.2s-1,0.7-1.7,0.7c-0.7,0-1.3-0.2-1.7-0.7c-0.4-0.5-0.6-1.2-0.6-2.2v-18.7c0-1,0.2-1.7,0.6-2.2
			c0.4-0.5,1-0.7,1.7-0.7c0.7,0,1.3,0.2,1.8,0.7C137.2,745.4,137.4,746.1,137.4,747.1z"/>
	</g>
	<g class="st1">
		<path class="st2" d="M163.8,758.1h-1.7v7.6c0,1-0.2,1.7-0.7,2.2c-0.4,0.5-1,0.7-1.7,0.7c-0.8,0-1.4-0.2-1.8-0.7s-0.6-1.2-0.6-2.2
			v-18.2c0-1,0.2-1.8,0.7-2.2c0.5-0.5,1.2-0.7,2.2-0.7h7.8c1.1,0,2,0,2.8,0.1s1.5,0.3,2.1,0.6c0.7,0.3,1.4,0.8,2,1.3
			c0.6,0.6,1,1.3,1.3,2c0.3,0.8,0.4,1.6,0.4,2.5c0,1.8-0.5,3.2-1.5,4.2c-1,1.1-2.5,1.8-4.5,2.2c0.9,0.5,1.7,1.1,2.4,2
			c0.8,0.9,1.5,1.8,2.1,2.8c0.6,1,1.1,1.9,1.4,2.7s0.5,1.4,0.5,1.7c0,0.3-0.1,0.6-0.3,0.9c-0.2,0.3-0.5,0.6-0.8,0.7
			s-0.7,0.3-1.2,0.3c-0.5,0-1-0.1-1.4-0.4c-0.4-0.3-0.7-0.6-0.9-1c-0.3-0.4-0.6-1-1.1-1.7l-1.9-3.2c-0.7-1.2-1.3-2.1-1.9-2.7
			c-0.5-0.6-1.1-1-1.7-1.3C165.4,758.2,164.7,758.1,163.8,758.1z M166.6,748.2h-4.4v6.5h4.3c1.2,0,2.1-0.1,2.9-0.3
			c0.8-0.2,1.4-0.5,1.8-1c0.4-0.5,0.6-1.1,0.6-2c0-0.7-0.2-1.2-0.5-1.7c-0.3-0.5-0.8-0.9-1.4-1.1
			C169.4,748.3,168.2,748.2,166.6,748.2z"/>
	</g>
	<g class="st1">
	</g>
	<g class="st1">
		<path class="st2" d="M206.5,761.2c0,1.4-0.4,2.7-1.1,3.9c-0.7,1.1-1.8,2-3.2,2.7c-1.4,0.6-3.1,1-5.1,1c-2.3,0-4.3-0.4-5.8-1.3
			c-1.1-0.6-2-1.5-2.6-2.5c-0.7-1.1-1-2.1-1-3.1c0-0.6,0.2-1.1,0.6-1.5c0.4-0.4,0.9-0.6,1.5-0.6c0.5,0,0.9,0.2,1.3,0.5
			c0.4,0.3,0.7,0.8,0.9,1.4c0.3,0.8,0.6,1.4,1,1.9s0.8,0.9,1.5,1.3c0.6,0.3,1.5,0.5,2.5,0.5c1.4,0,2.6-0.3,3.5-1s1.3-1.5,1.3-2.5
			c0-0.8-0.2-1.4-0.7-1.9c-0.5-0.5-1.1-0.9-1.9-1.1c-0.8-0.3-1.8-0.5-3-0.8c-1.7-0.4-3.1-0.9-4.3-1.4c-1.1-0.5-2.1-1.3-2.7-2.2
			c-0.7-0.9-1-2.1-1-3.4c0-1.3,0.4-2.5,1.1-3.5c0.7-1,1.7-1.8,3.1-2.3c1.3-0.5,2.9-0.8,4.8-0.8c1.5,0,2.7,0.2,3.8,0.5
			s1.9,0.8,2.6,1.4c0.7,0.6,1.2,1.2,1.5,1.9c0.3,0.7,0.5,1.3,0.5,1.9c0,0.6-0.2,1.1-0.6,1.5c-0.4,0.5-0.9,0.7-1.5,0.7
			c-0.5,0-1-0.1-1.3-0.4c-0.3-0.3-0.6-0.7-0.9-1.4c-0.4-0.9-0.9-1.6-1.6-2.1c-0.6-0.5-1.6-0.8-2.9-0.8c-1.2,0-2.2,0.3-3,0.8
			c-0.8,0.5-1.1,1.2-1.1,2c0,0.5,0.1,0.9,0.4,1.2c0.3,0.3,0.6,0.6,1.1,0.9s0.9,0.4,1.4,0.6c0.5,0.1,1.2,0.3,2.3,0.6
			c1.3,0.3,2.5,0.7,3.6,1c1.1,0.4,2,0.8,2.8,1.4c0.8,0.5,1.4,1.2,1.8,2C206.3,759,206.5,760,206.5,761.2z"/>
	</g>
	<g class="st1">
		<path class="st2" d="M226.2,759.7c0,1.3-0.2,2.5-0.6,3.6c-0.4,1.1-1,2.1-1.8,2.9s-1.7,1.4-2.8,1.8c-1.1,0.4-2.3,0.6-3.6,0.6
			c-1.3,0-2.5-0.2-3.6-0.6c-1.1-0.4-2-1-2.8-1.9s-1.4-1.8-1.8-2.8c-0.4-1.1-0.6-2.3-0.6-3.6c0-1.3,0.2-2.6,0.6-3.7
			c0.4-1.1,1-2.1,1.8-2.8c0.8-0.8,1.7-1.4,2.8-1.8c1.1-0.4,2.3-0.6,3.6-0.6c1.3,0,2.5,0.2,3.6,0.6c1.1,0.4,2,1,2.8,1.8
			c0.8,0.8,1.4,1.7,1.8,2.8C226,757.2,226.2,758.4,226.2,759.7z M221.7,759.7c0-1.8-0.4-3.2-1.2-4.2c-0.8-1-1.9-1.5-3.2-1.5
			c-0.9,0-1.6,0.2-2.3,0.7s-1.2,1.1-1.5,2c-0.4,0.9-0.5,1.9-0.5,3.1c0,1.2,0.2,2.2,0.5,3c0.4,0.9,0.9,1.5,1.5,2
			c0.7,0.5,1.4,0.7,2.3,0.7c1.3,0,2.4-0.5,3.2-1.5C221.3,762.9,221.7,761.5,221.7,759.7z"/>
	</g>
	<g class="st1">
		<path class="st2" d="M228.9,751.1h1.1v-1.3c0-1.4,0.2-2.5,0.5-3.3c0.4-0.8,0.9-1.4,1.8-1.8s2-0.6,3.4-0.6c2.6,0,3.9,0.6,3.9,1.9
			c0,0.4-0.1,0.8-0.4,1.1s-0.6,0.4-1,0.4c-0.2,0-0.5,0-0.9-0.1c-0.4-0.1-0.8-0.1-1.1-0.1c-0.8,0-1.3,0.2-1.5,0.7
			c-0.2,0.5-0.3,1.1-0.3,2v1.1h1.1c1.7,0,2.5,0.5,2.5,1.5c0,0.7-0.2,1.2-0.7,1.4s-1.1,0.3-1.9,0.3h-1.1V766c0,0.9-0.2,1.5-0.6,2
			s-1,0.7-1.6,0.7c-0.6,0-1.1-0.2-1.6-0.7s-0.6-1.1-0.6-2v-11.7h-1.2c-0.7,0-1.2-0.1-1.5-0.4c-0.4-0.3-0.5-0.7-0.5-1.2
			C226.7,751.6,227.5,751.1,228.9,751.1z"/>
		<path class="st2" d="M240.6,751.1h0.5v-2.7c0-0.7,0-1.3,0.1-1.7c0-0.4,0.1-0.8,0.3-1c0.2-0.3,0.4-0.5,0.7-0.7
			c0.3-0.2,0.7-0.3,1.1-0.3c0.6,0,1.1,0.2,1.5,0.6c0.3,0.3,0.5,0.6,0.6,1c0.1,0.4,0.1,1,0.1,1.7v3h1.6c0.6,0,1.1,0.1,1.4,0.4
			c0.3,0.3,0.5,0.7,0.5,1.1c0,0.6-0.2,1-0.7,1.2s-1.1,0.4-2,0.4h-0.8v8.1c0,0.7,0,1.2,0.1,1.6c0,0.4,0.2,0.7,0.4,0.9
			c0.2,0.2,0.6,0.3,1,0.3c0.3,0,0.6,0,1.1-0.1c0.4-0.1,0.8-0.1,1-0.1c0.4,0,0.7,0.1,1,0.4c0.3,0.3,0.4,0.6,0.4,1.1
			c0,0.7-0.4,1.3-1.2,1.6c-0.8,0.4-1.9,0.6-3.3,0.6c-1.4,0-2.4-0.2-3.1-0.7s-1.2-1.1-1.4-1.9c-0.2-0.8-0.3-1.9-0.3-3.3v-8.5h-0.6
			c-0.6,0-1.1-0.2-1.5-0.5c-0.3-0.3-0.5-0.7-0.5-1.1s0.2-0.8,0.5-1.1C239.4,751.3,239.9,751.1,240.6,751.1z"/>
	</g>
	<g class="st1">
		<path class="st2" d="M254.8,753.5l2.9,9.9l2.6-9.2c0.3-1,0.5-1.6,0.6-2s0.4-0.7,0.8-1s0.9-0.5,1.5-0.5c0.7,0,1.2,0.2,1.5,0.5
			s0.6,0.7,0.8,1c0.2,0.4,0.4,1,0.6,1.9l2.6,9.2l2.9-9.9c0.2-0.7,0.3-1.2,0.5-1.5c0.1-0.3,0.3-0.6,0.6-0.8c0.3-0.2,0.7-0.4,1.2-0.4
			s1,0.2,1.4,0.5c0.4,0.4,0.6,0.8,0.6,1.3c0,0.5-0.2,1.1-0.5,2.1l-3.6,10.6c-0.3,0.9-0.6,1.5-0.7,1.9c-0.2,0.4-0.4,0.8-0.8,1.1
			s-0.9,0.5-1.5,0.5c-0.7,0-1.2-0.2-1.6-0.5c-0.4-0.3-0.7-0.7-0.8-1.2s-0.4-1.1-0.6-1.9l-2.5-8.6l-2.4,8.6c-0.3,1.2-0.7,2.1-1.1,2.7
			s-1,0.9-2,0.9c-0.5,0-0.9-0.1-1.2-0.3c-0.3-0.2-0.6-0.5-0.8-0.8s-0.4-0.8-0.6-1.2c-0.2-0.5-0.3-0.9-0.4-1.1l-3.6-10.6
			c-0.4-1-0.5-1.7-0.5-2.1c0-0.5,0.2-0.9,0.6-1.3c0.4-0.4,0.8-0.6,1.4-0.6c0.7,0,1.2,0.2,1.5,0.6S254.5,752.5,254.8,753.5z"/>
	</g>
	<g class="st1">
		<path class="st2" d="M289.2,766.2c-1.1,0.8-2.1,1.5-3.1,1.9c-1,0.4-2.1,0.6-3.4,0.6c-1.1,0-2.1-0.2-3-0.7c-0.9-0.4-1.5-1.1-2-1.8
			s-0.7-1.6-0.7-2.5c0-1.2,0.4-2.2,1.1-3.1c0.8-0.9,1.8-1.4,3.2-1.7c0.3-0.1,1-0.2,2.1-0.4s2.1-0.4,2.9-0.6c0.8-0.2,1.7-0.4,2.6-0.7
			c-0.1-1.2-0.3-2-0.7-2.6s-1.3-0.8-2.6-0.8c-1.1,0-2,0.2-2.5,0.5s-1.1,0.8-1.5,1.4s-0.7,1-0.9,1.2c-0.2,0.2-0.5,0.3-1.1,0.3
			c-0.5,0-0.9-0.2-1.3-0.5s-0.5-0.7-0.5-1.2c0-0.8,0.3-1.5,0.8-2.3c0.5-0.7,1.4-1.3,2.6-1.8c1.2-0.5,2.6-0.7,4.4-0.7
			c1.9,0,3.5,0.2,4.6,0.7c1.1,0.5,1.9,1.2,2.4,2.2c0.5,1,0.7,2.3,0.7,3.9c0,1,0,1.9,0,2.6c0,0.7,0,1.5,0,2.4c0,0.8,0.1,1.7,0.4,2.6
			c0.3,0.9,0.4,1.5,0.4,1.7c0,0.5-0.2,0.9-0.6,1.2c-0.4,0.4-0.9,0.6-1.4,0.6c-0.5,0-0.9-0.2-1.3-0.6S289.7,767,289.2,766.2z
			 M288.9,759.8c-0.6,0.2-1.6,0.5-2.8,0.8c-1.2,0.3-2.1,0.5-2.6,0.6s-0.9,0.4-1.4,0.7c-0.4,0.4-0.6,0.9-0.6,1.5
			c0,0.7,0.3,1.2,0.8,1.7c0.5,0.5,1.2,0.7,2,0.7c0.9,0,1.7-0.2,2.4-0.6c0.7-0.4,1.3-0.9,1.6-1.5c0.4-0.7,0.6-1.8,0.6-3.3V759.8z"/>
	</g>
	<g class="st1">
		<path class="st2" d="M301.5,762.3v3.7c0,0.9-0.2,1.6-0.6,2c-0.4,0.4-1,0.7-1.6,0.7c-0.6,0-1.2-0.2-1.6-0.7c-0.4-0.5-0.6-1.1-0.6-2
			v-12.3c0-2,0.7-3,2.2-3c0.7,0,1.3,0.2,1.6,0.7c0.3,0.5,0.5,1.1,0.5,2.1c0.5-0.9,1.1-1.6,1.6-2.1c0.6-0.5,1.3-0.7,2.2-0.7
			c0.9,0,1.8,0.2,2.7,0.7c0.9,0.5,1.3,1.1,1.3,1.8c0,0.5-0.2,1-0.6,1.3c-0.4,0.4-0.8,0.5-1.2,0.5c-0.2,0-0.6-0.1-1.2-0.3
			c-0.6-0.2-1.2-0.3-1.6-0.3c-0.6,0-1.2,0.2-1.6,0.5c-0.4,0.3-0.7,0.8-1,1.5c-0.2,0.7-0.4,1.5-0.5,2.4
			C301.6,759.9,301.5,761,301.5,762.3z"/>
	</g>
	<g class="st1">
		<path class="st2" d="M323.2,760.8h-8.6c0,1,0.2,1.9,0.6,2.7s0.9,1.3,1.6,1.7c0.7,0.4,1.4,0.6,2.2,0.6c0.5,0,1-0.1,1.4-0.2
			c0.4-0.1,0.9-0.3,1.3-0.6c0.4-0.3,0.8-0.5,1.1-0.8c0.3-0.3,0.8-0.7,1.3-1.2c0.2-0.2,0.6-0.3,1-0.3c0.5,0,0.8,0.1,1.1,0.4
			c0.3,0.2,0.4,0.6,0.4,1.1c0,0.4-0.2,0.9-0.5,1.4s-0.8,1-1.4,1.5c-0.6,0.5-1.4,0.9-2.4,1.2c-1,0.3-2.1,0.5-3.3,0.5
			c-2.8,0-5-0.8-6.6-2.4c-1.6-1.6-2.4-3.8-2.4-6.6c0-1.3,0.2-2.5,0.6-3.6c0.4-1.1,1-2.1,1.7-2.9c0.7-0.8,1.7-1.4,2.8-1.8
			c1.1-0.4,2.3-0.6,3.6-0.6c1.7,0,3.2,0.4,4.4,1.1c1.2,0.7,2.2,1.7,2.8,2.8c0.6,1.2,0.9,2.3,0.9,3.5c0,1.1-0.3,1.8-1,2.2
			C325.2,760.6,324.3,760.8,323.2,760.8z M314.5,758.3h8c-0.1-1.5-0.5-2.6-1.2-3.4c-0.7-0.8-1.6-1.1-2.8-1.1c-1.1,0-2,0.4-2.7,1.1
			C315.1,755.7,314.7,756.8,314.5,758.3z"/>
	</g>
	<path class="st3" d="M142.6,612.8c0-3.6,1.4-4.8,5-4.4c3,0.3,3.2,2.3,3.2,4.6"/>
	<path class="st3" d="M150.7,612.9c0,27.2,0,54.6,0,81.7c0,3.7-1.2,4.8-4.5,4.6c-2.1-0.1-3.3-1.1-3.5-3.1c-0.1-0.9-0.3-1.8-0.4-2.7
		c-0.1-0.9-0.1-1.7-0.2-2.9c-17.5,12.5-34.1,13.2-48.9-3.2c-8.8-9.8-9.2-25.2-2.2-36.2c5.6-8.8,13.7-13.9,24-15.1
		c10.3-1.2,19.1,2.4,27.3,9.6c0.2-2,0.4-3.1,0.4-4.1c0-9.5,0-19.1,0-28.7 M118.6,644.2c-13.4,0-24,10.3-24,23.4
		c0,13.2,10.5,23.7,23.8,23.7c13.4,0,24-10.4,24.1-23.7C142.6,654,129.8,643.3,118.6,644.2"/>
	<path class="st3" d="M64.9,647.5c0-11.5,0-23.1,0-34.6c0-3.6,1.4-4.8,5-4.4c3.1,0.3,3.2,2.5,3.2,4.8c0,21.7,0,43.4,0,65.1
		c0,1.4,0,2.8,0.2,4.1c0.7,5.1,4.3,8.4,9.5,8.7c3.2,0.2,4.3,1.4,4.2,4.5c-0.1,2.8-0.9,3.5-4.4,3.5c-10,0.1-17.5-7.4-17.7-17.7
		c-0.1-5.7,0-11.5,0-17.2V647.5z"/>
	<path class="st3" d="M-5.8,692.4c0-11.4,0-22.4,0-33.7c0-1.4,0.1-2.8,0.4-4.1c1.9-7,8.9-11.3,16.6-10.2c6.4,0.9,11.7,7.2,11.8,14.1
		c0,11.6,0,23.1,0,34.6c0,1.1,0.1,2.2,0.2,3.3c0.3,1.9,1.5,2.8,3.4,2.9c3.6,0.2,4.8-0.9,4.8-4.6c0-12,0.1-24,0-36
		c-0.1-16.6-16.7-27.4-32-20.9c-1.6,0.7-3.1,1.4-5,2.4c-0.1-1.4-0.2-2.4-0.2-3.4c0-7.8,0-15.5,0-23.3c0-3.7-1.1-4.9-4-5
		c-3.3-0.1-4.4,1-4.4,4.8c0,27.1,0,54.2,0,81.2v0.4h-0.1c0.2,2.4,1,4.5,4.1,4.5c1.6,0,2.7-0.8,3.3-1.3
		C-5.8,696.9-5.8,695.2-5.8,692.4"/>
	<path class="st3" d="M-57.1,699.7c-24.5-0.1-44.2-20.7-44.2-46c0-12.2,4.5-23.7,12.8-32.3c8.3-8.6,19.3-13.4,31-13.4
		c11.9,0,23.9,5.1,32.2,13.6c1.7,1.7,1.6,4.5-0.1,6.1c-1.7,1.7-4.5,1.6-6.1-0.1c-6.7-6.8-16.4-10.9-26-11c-9.3,0-18.1,3.8-24.7,10.7
		c-6.7,7-10.4,16.3-10.4,26.3c0,20.5,15.9,37.2,35.4,37.3c9.6,0,19.1-4,25.8-10.7c1.7-1.7,4.4-1.7,6.1,0c1.7,1.7,1.7,4.4,0,6.1
		C-33.5,694.8-45.4,699.7-57.1,699.7"/>
	<path class="st3" d="M52.1,668c0,8.9,0,17.7,0,26.6c0,3.9-0.7,4.6-3.8,4.7c-3.4,0-4.3-0.9-4.3-4.6c0-18.1,0-36.2,0-54.3
		c0-3.2,1.4-4.6,4.2-4.6s3.9,1.2,3.9,4.5C52.1,649.5,52.1,658.8,52.1,668"/>
	<path class="st3" d="M47.9,628c-2.9,0-5.1-2.3-5.1-5.2c0-2.8,2.2-5.1,5.1-5.1c2.9,0,5.1,2.3,5.1,5.1C53,625.6,50.8,628,47.9,628"/>
</g>
</svg>
